M48
; DRILL file KiCad 10.0.4 date 2026-08-13T22:44:16
; FORMAT={-:-/ absolute / metric / decimal}
; #@! TF.CreationDate,2026-08-13T22:44:16+05:30
; #@! TF.GenerationSoftware,Kicad,Pcbnew,10.0.4
; #@! TF.FileFunction,Plated,1,4,PTH
FMAT,2
METRIC
; #@! TA.AperFunction,Plated,PTH,ViaDrill
T1C0.300
; #@! TA.AperFunction,Plated,PTH,ViaDrill
T2C0.400
; #@! TA.AperFunction,Plated,PTH,ComponentDrill
T3C0.600
; #@! TA.AperFunction,Plated,PTH,ComponentDrill
T4C0.650
%
G90
G05
T1
X116.1Y-85.8
X116.1Y-88.8
X116.1Y-91.8
X116.1Y-100.7
X116.1Y-103.7
X116.1Y-106.7
X116.9Y-82.8
X117.0Y-109.5
X119.1Y-91.8
X119.1Y-100.7
X119.6Y-81.7
X119.9Y-110.1
X122.6Y-81.6
X122.9Y-110.2
X125.9Y-81.6
X125.9Y-110.2
X127.7Y-84.0
X127.7Y-87.0
X127.7Y-90.0
X127.7Y-93.0
X127.7Y-95.7
X127.7Y-98.7
X127.7Y-101.7
X127.7Y-104.7
X127.7Y-107.7
X134.6Y-97.3
X135.012Y-102.25
X136.8Y-109.8
X139.5Y-81.6
X140.2Y-88.1
X142.0Y-81.7
X142.9Y-81.7
X144.4Y-100.7
X144.6Y-98.9
X150.8Y-89.9
X153.6Y-97.2
X154.5Y-96.6
X154.7Y-107.3
X155.426Y-101.601
X155.6Y-107.4
X155.8Y-88.7
X156.325Y-99.0
X156.325Y-100.4
X156.342Y-105.042
X163.7Y-88.0
X164.0Y-85.6
X164.0Y-86.8
T2
X128.8Y-93.7
X129.3Y-99.0
X129.3Y-102.4
X131.0Y-108.0
X131.3Y-99.7
X132.1Y-108.76
X132.3Y-92.6
X132.9Y-106.875
X133.7Y-89.5
X133.713Y-106.2
X134.7Y-91.9
X135.3Y-106.4
X136.5Y-82.8
X136.7Y-95.5
X137.6Y-110.7
X137.9Y-105.3
X138.8Y-105.95
X138.9Y-90.0
X139.0Y-91.9
X139.029Y-102.956
X139.1Y-104.3
X139.135Y-105.224
X139.56Y-100.76
X139.8Y-107.5
X139.9Y-102.825
X140.0Y-110.0
X140.06Y-101.44
X140.19Y-104.49
X140.5Y-99.1
X141.1Y-110.0
X141.4Y-98.9
X142.3Y-110.0
X143.5Y-94.7
X143.8Y-81.7
X144.2Y-93.8
X145.3Y-89.3
X145.5Y-90.3
X146.5Y-98.9
X146.8Y-85.7
X147.0Y-90.2
X148.758Y-95.742
X151.1Y-94.7
X151.2Y-82.7
X151.9Y-107.3
X152.2Y-95.9
X152.3Y-88.9
X152.5Y-92.8
X152.9Y-99.7
X153.1Y-109.8
X153.3Y-86.1
X154.1Y-108.1
X154.2Y-98.4
X154.4Y-93.1
X155.0Y-86.8
X155.6Y-106.6
X156.0Y-90.3
X158.3Y-92.2
X158.9Y-104.5
X159.2Y-102.2
X159.4Y-97.3
X159.7Y-89.6
X162.7Y-110.1
X162.8Y-83.9
X163.864Y-90.05
X164.4Y-84.5
X164.5Y-93.2
X165.768Y-89.368
X166.05Y-85.75
X166.1Y-93.6
X166.345Y-91.4
X166.4Y-83.8
X166.4Y-87.9
X168.0Y-82.9
X168.0Y-93.8
X172.2Y-94.0
X172.3Y-83.1
T4
X138.52Y-83.93
X138.52Y-85.2
X139.79Y-83.93
X139.79Y-85.2
X141.06Y-83.93
X141.06Y-85.2
X142.33Y-83.93
X142.33Y-85.2
X143.6Y-83.93
X143.6Y-85.2
T3
G00X167.445Y-83.98
M15
G01X168.545Y-83.98
M16
G05
G00X167.445Y-92.62
M15
G01X168.545Y-92.62
M16
G05
G00X171.775Y-83.98
M15
G01X172.575Y-83.98
M16
G05
G00X171.775Y-92.62
M15
G01X172.575Y-92.62
M16
G05
M30
